<svg width="751" height="775" viewBox="0 0 751 775" fill="none" xmlns="http://www.w3.org/2000/svg">
<g style="mix-blend-mode:hard-light" opacity="0.2" clip-path="url(#clip0_3_85)">
<path d="M309.776 -5.60708C313.478 -3.2518 316.17 1.12229 316.507 9.19753C319.536 51.929 315.834 96.3429 315.834 139.074C315.834 193.919 315.834 249.1 315.834 303.944C315.834 314.711 319.199 320.767 330.642 319.758C347.47 318.412 364.298 318.076 380.789 317.739C416.127 317.403 451.802 318.412 487.141 321.44C498.583 322.45 509.017 323.796 519.786 326.487C565.895 338.264 599.887 366.191 621.763 409.595C633.879 433.484 640.273 458.047 640.946 483.955C641.62 510.199 633.879 535.434 621.763 558.314C610.993 578.839 599.214 598.354 579.02 611.813C548.394 632.337 516.757 647.142 478.727 646.806C398.963 645.796 318.863 646.469 239.099 646.469C228.33 646.469 217.223 646.469 205.107 646.469C205.107 611.813 204.771 577.829 205.444 543.846C205.444 541.154 209.482 537.117 212.848 535.771C215.877 534.425 220.252 535.434 223.954 535.434C308.43 535.434 392.905 534.762 477.717 535.771C496.564 536.107 523.489 514.91 526.181 493.712C529.547 464.44 522.142 448.289 495.218 434.494C491.852 432.811 487.141 432.139 483.438 432.139C399.3 432.139 315.161 431.802 231.022 432.139C209.482 432.139 203.088 437.522 203.088 403.875C202.751 277.699 203.088 151.187 203.088 25.0116C203.088 17.9457 202.415 9.19753 204.771 2.46816C208.473 -7.96236 208.136 -6.61649 219.916 -6.95296C239.099 -7.28943 258.619 -6.95296 277.803 -6.95296C288.909 -6.95296 302.035 -10.6541 309.776 -5.60708Z" fill="url(#paint0_linear_3_85)"/>
<path d="M749.99 439.541C748.644 444.924 747.298 450.308 745.279 458.72C742.25 446.27 739.557 435.84 737.201 425.409C715.662 324.469 627.821 234.631 523.825 220.163C489.833 215.453 455.504 212.761 419.156 209.06C419.156 207.041 419.156 202.667 419.156 198.293C419.156 138.738 419.156 78.8465 419.156 19.2916C419.156 10.5434 420.839 1.79522 421.512 -7.28943C530.893 -7.28943 640.273 -7.28943 749.654 -7.28943C749.99 141.766 749.99 290.485 749.99 439.541Z" fill="url(#paint1_linear_3_85)"/>
<path d="M539.307 772.645C354.538 772.645 170.105 772.308 -14.6635 773.318C-10.9613 699.631 -10.6248 625.608 -14.3269 551.921C-14.6635 546.874 -14.6635 540.818 -10.6248 537.79C-7.59579 535.434 -3.55713 535.098 0.144984 535.098C29.4253 535.098 59.0422 535.098 88.3225 535.434C91.688 535.434 95.3902 535.771 97.4095 538.463C98.7557 540.481 98.7557 542.837 98.7557 545.192C98.7557 608.785 98.7557 672.041 98.4192 735.633C98.4192 740.007 98.7557 745.054 102.121 748.082C104.814 750.101 108.516 750.438 111.881 750.438C241.792 750.101 371.702 750.774 501.612 749.765C528.2 749.428 554.115 742.699 579.02 731.259C603.589 719.819 627.148 707.37 647.341 689.2C662.823 675.069 678.304 660.264 690.42 643.104C704.219 623.253 715.325 601.719 724.749 579.512C732.826 560.67 736.528 539.808 742.25 519.957C743.596 515.246 746.288 510.536 748.644 506.835C752.346 525.677 749.654 547.547 749.654 566.726C749.654 589.606 749.654 612.486 749.654 635.366C749.654 682.135 749.654 728.904 749.654 775.336" fill="url(#paint2_linear_3_85)"/>
<path d="M93.0343 -6.28004C94.717 -4.93417 95.7267 -3.58829 96.3998 -1.90595C103.467 26.0209 98.7557 59.6678 98.7557 88.2676C98.7557 122.587 98.7557 156.571 98.7557 190.891C98.7557 258.184 98.7557 325.814 98.7557 393.108C98.7557 402.866 101.785 412.623 100.775 422.044C100.438 425.409 93.7074 431.129 90.0053 431.466C68.1292 432.475 46.2531 432.138 24.377 431.802C11.2513 431.466 -1.87434 430.12 -15 429.447C-15 427.091 -15 424.4 -15 422.044C-14.3269 418.343 -12.6441 414.306 -12.6441 410.605C-12.6441 340.283 -12.6441 269.961 -12.6441 199.639C-12.6441 163.637 -12.6441 127.298 -12.6441 91.2958C-12.6441 73.1265 -12.6441 55.2937 -12.6441 37.1244C-12.6441 23.3292 -17.0193 6.16929 -14.6634 -6.95298C1.82776 -6.95298 76.2065 -18.7294 93.0343 -6.28004Z" fill="url(#paint3_linear_3_85)"/>
</g>
<defs>
<linearGradient id="paint0_linear_3_85" x1="202.32" y1="319.162" x2="641.089" y2="319.162" gradientUnits="userSpaceOnUse">
<stop stop-color="#EDDB79"/>
<stop offset="1" stop-color="#AC8B2E"/>
</linearGradient>
<linearGradient id="paint1_linear_3_85" x1="419.407" y1="225.739" x2="750.056" y2="225.739" gradientUnits="userSpaceOnUse">
<stop stop-color="#EDDB79"/>
<stop offset="1" stop-color="#AC8B2E"/>
</linearGradient>
<linearGradient id="paint2_linear_3_85" x1="-14.7562" y1="640.799" x2="751.011" y2="640.799" gradientUnits="userSpaceOnUse">
<stop stop-color="#EDDB79"/>
<stop offset="1" stop-color="#AC8B2E"/>
</linearGradient>
<linearGradient id="paint3_linear_3_85" x1="-15" y1="210.071" x2="101.285" y2="210.071" gradientUnits="userSpaceOnUse">
<stop stop-color="#EDDB79"/>
<stop offset="1" stop-color="#AC8B2E"/>
</linearGradient>
<clipPath id="clip0_3_85">
<rect width="766" height="787" fill="white" transform="translate(-15 -12)"/>
</clipPath>
</defs>
</svg>
