<svg width="157" height="133" viewBox="0 0 157 133" fill="none" xmlns="http://www.w3.org/2000/svg">
<path d="M66.8217 1.16359C67.5756 1.55863 68.124 2.29228 68.1925 3.64671C68.8094 10.8139 68.0554 18.2632 68.0554 25.4304C68.0554 34.6292 68.0554 43.8844 68.0554 53.0832C68.0554 54.8891 68.7408 55.9049 71.0712 55.7356C74.4983 55.5099 77.9254 55.4535 81.2839 55.397C88.4807 55.3406 95.7461 55.5099 102.943 56.0178C105.273 56.1871 107.398 56.4128 109.591 56.8643C118.982 58.8395 125.904 63.5236 130.359 70.8036C132.827 74.8104 134.129 78.9302 134.266 83.2756C134.403 87.6775 132.827 91.9101 130.359 95.7476C128.166 99.1901 125.767 102.463 121.655 104.721C115.417 108.163 108.975 110.646 101.229 110.59C84.9851 110.421 68.6723 110.533 52.428 110.533C50.2347 110.533 47.9728 110.533 45.5053 110.533C45.5053 104.721 45.4368 99.0208 45.5739 93.3209C45.5739 92.8694 46.3964 92.1922 47.0818 91.9665C47.6987 91.7408 48.5897 91.9101 49.3437 91.9101C66.5475 91.9101 83.7514 91.7972 101.024 91.9665C104.862 92.0229 110.345 88.4676 110.894 84.9122C111.579 80.0024 110.071 77.2936 104.588 74.9798C103.903 74.6976 102.943 74.5847 102.189 74.5847C85.0537 74.5847 67.9183 74.5283 50.783 74.5847C46.3964 74.5847 45.0941 75.4877 45.0941 69.8442C45.0256 48.6813 45.0941 27.462 45.0941 6.29912C45.0941 5.114 44.957 3.64671 45.4368 2.51802C46.1908 0.768552 46.1222 0.99429 48.5212 0.937855C52.428 0.881421 56.4034 0.937855 60.3103 0.937855C62.5721 0.937855 65.2452 0.317077 66.8217 1.16359Z" fill="#222025"/>
<path d="M156.474 75.8263C156.2 76.7293 155.925 77.6322 155.514 79.0431C154.897 76.955 154.349 75.2055 153.869 73.4561C149.482 56.5258 131.593 41.4578 110.414 39.0311C103.491 38.241 96.5001 37.7895 89.0976 37.1688C89.0976 36.8302 89.0976 36.0965 89.0976 35.3629C89.0976 25.374 89.0976 15.3287 89.0976 5.33979C89.0976 3.87249 89.4403 2.4052 89.5774 0.88147C111.853 0.88147 134.129 0.88147 156.405 0.88147C156.474 25.8819 156.474 50.8259 156.474 75.8263Z" fill="#222025"/>
<path d="M113.567 131.696C75.9377 131.696 38.377 131.64 0.747864 131.809C1.50182 119.45 1.57036 107.034 0.816405 94.6754C0.747864 93.8289 0.747864 92.813 1.57036 92.3051C2.18723 91.9101 3.00973 91.8537 3.76368 91.8537C9.72677 91.8537 15.7584 91.8536 21.7215 91.9101C22.4069 91.9101 23.1609 91.9665 23.5721 92.418C23.8463 92.7566 23.8463 93.1516 23.8463 93.5467C23.8463 104.213 23.8463 114.822 23.7777 125.489C23.7777 126.222 23.8463 127.069 24.5317 127.577C25.08 127.915 25.834 127.972 26.5194 127.972C52.9763 127.915 79.4333 128.028 105.89 127.859C111.305 127.802 116.583 126.674 121.655 124.755C126.658 122.836 131.456 120.748 135.569 117.701C138.721 115.33 141.874 112.847 144.342 109.969C147.152 106.639 149.414 103.028 151.333 99.303C152.978 96.1427 153.732 92.6437 154.897 89.3141C155.171 88.524 155.72 87.7339 156.2 87.1132C156.953 90.2735 156.405 93.9417 156.405 97.1585C156.405 100.996 156.405 104.834 156.405 108.671C156.405 116.515 156.405 124.36 156.405 132.148" fill="#222025"/>
<path d="M22.6811 1.05076C23.0238 1.27649 23.2294 1.50223 23.3665 1.7844C24.8058 6.46846 23.8463 12.1119 23.8463 16.9088C23.8463 22.6651 23.8463 28.365 23.8463 34.1213C23.8463 45.4082 23.8463 56.7515 23.8463 68.0384C23.8463 69.675 24.4631 71.3116 24.2575 72.8917C24.189 73.4561 22.8182 74.4155 22.0642 74.4719C17.609 74.6412 13.1538 74.5847 8.69864 74.5283C6.02553 74.4719 3.35242 74.2461 0.679312 74.1333C0.679312 73.7382 0.679312 73.2868 0.679312 72.8917C0.816395 72.2709 1.1591 71.5937 1.1591 70.973C1.1591 59.1782 1.1591 47.3834 1.1591 35.5886C1.1591 29.5501 1.1591 23.4552 1.1591 17.4167C1.1591 14.3693 1.1591 11.3782 1.1591 8.33079C1.1591 6.01698 0.268064 3.13883 0.747854 0.937887C4.10638 0.937887 19.254 -1.03732 22.6811 1.05076Z" fill="#222025"/>
</svg>
