<svg width="33" height="33" viewBox="0 0 33 33" fill="none" xmlns="http://www.w3.org/2000/svg">
<path d="M16.9766 2.81116L4.97656 6.81116V18.8112C4.97656 25.4393 10.3484 30.8112 16.9766 30.8112C23.6047 30.8112 28.9766 25.4393 28.9766 18.8112V6.81116L16.9766 2.81116ZM26.7266 18.8112C26.7266 24.1955 22.3609 28.5612 16.9766 28.5612C11.5922 28.5612 7.22656 24.1955 7.22656 18.8112V8.49866L16.9766 5.06116L26.7266 8.49866V18.8112Z" fill="white"/>
<path d="M12.8015 15.658C12.6973 15.5533 12.5733 15.4702 12.4369 15.4135C12.3004 15.3567 12.154 15.3275 12.0062 15.3275C11.8584 15.3275 11.7121 15.3567 11.5756 15.4135C11.4391 15.4702 11.3152 15.5533 11.2109 15.658C11.1062 15.7623 11.0231 15.8862 10.9663 16.0227C10.9096 16.1592 10.8804 16.3055 10.8804 16.4533C10.8804 16.6011 10.9096 16.7475 10.9663 16.884C11.0231 17.0205 11.1062 17.1444 11.2109 17.2487L15.2547 21.2924L15.3203 21.358C15.4189 21.4568 15.5361 21.5352 15.665 21.5887C15.794 21.6422 15.9322 21.6698 16.0719 21.6698C16.2115 21.6698 16.3497 21.6422 16.4787 21.5887C16.6076 21.5352 16.7248 21.4568 16.8234 21.358L23.8078 14.3737C23.9066 14.275 23.985 14.1579 24.0385 14.0289C24.092 13.9 24.1195 13.7617 24.1195 13.6221C24.1195 13.4825 24.092 13.3442 24.0385 13.2153C23.985 13.0863 23.9066 12.9692 23.8078 12.8705L23.7203 12.783C23.6217 12.6842 23.5045 12.6058 23.3756 12.5523C23.2466 12.4988 23.1084 12.4713 22.9687 12.4713C22.8291 12.4713 22.6909 12.4988 22.5619 12.5523C22.433 12.6058 22.3158 12.6842 22.2172 12.783L16.0703 18.9268L12.8015 15.658Z" fill="white"/>
</svg>
