<svg width="19" height="20" viewBox="0 0 19 20" fill="none" xmlns="http://www.w3.org/2000/svg">
<path d="M9.5 0.26062C12.0196 0.26062 14.4359 1.26151 16.2175 3.04311C17.9991 4.8247 19 7.24106 19 9.76062C19 12.2802 17.9991 14.6965 16.2175 16.4781C14.4359 18.2597 12.0196 19.2606 9.5 19.2606C6.98044 19.2606 4.56408 18.2597 2.78249 16.4781C1.00089 14.6965 0 12.2802 0 9.76062C0 7.24106 1.00089 4.8247 2.78249 3.04311C4.56408 1.26151 6.98044 0.26062 9.5 0.26062ZM9.5 1.26062C7.24566 1.26062 5.08365 2.15615 3.48959 3.75021C1.89553 5.34427 1 7.50628 1 9.76062C1 12.015 1.89553 14.177 3.48959 15.771C5.08365 17.3651 7.24566 18.2606 9.5 18.2606C10.6162 18.2606 11.7215 18.0408 12.7528 17.6136C13.7841 17.1864 14.7211 16.5603 15.5104 15.771C16.2997 14.9817 16.9258 14.0447 17.353 13.0134C17.7801 11.9822 18 10.8769 18 9.76062C18 7.50628 17.1045 5.34427 15.5104 3.75021C13.9163 2.15615 11.7543 1.26062 9.5 1.26062ZM9 4.26062H10V9.68062L14.7 12.3906L14.2 13.2606L9 10.2606V4.26062Z" fill="#EBEDF0"/>
</svg>
