<svg width="54" height="55" viewBox="0 0 54 55" fill="none" xmlns="http://www.w3.org/2000/svg">
<g clip-path="url(#clip0_32_221)">
<path d="M52.602 1.7252C53.2533 2.19888 53.5198 2.83046 53.4014 3.61994L45.8224 49.0936C45.7237 49.666 45.408 50.1101 44.8751 50.4259C44.5987 50.5838 44.2928 50.6627 43.9573 50.6627C43.7402 50.6627 43.5033 50.6134 43.2468 50.5147L27.6448 44.1495L18.8224 53.8305C18.4672 54.2449 18.0033 54.4522 17.431 54.4522C17.1547 54.4522 16.9277 54.4127 16.7501 54.3338C16.3751 54.1956 16.079 53.9637 15.8619 53.638C15.6448 53.3124 15.5362 52.9522 15.5362 52.5574V39.1759L1.56256 33.462C0.832297 33.1857 0.43756 32.643 0.37835 31.8338C0.319139 31.064 0.634929 30.4818 1.32572 30.087L50.5889 1.66599C51.2797 1.25151 51.9507 1.27125 52.602 1.7252ZM42.477 46.1035L49.0198 6.93572L6.56585 31.4193L16.5132 35.4752L42.0626 16.5574L27.9112 40.1528L42.477 46.1035Z" fill="#C7B349"/>
</g>
<defs>
<clipPath id="clip0_32_221">
<rect width="53.0526" height="54" fill="white" transform="translate(0.378418 0.452148)"/>
</clipPath>
</defs>
</svg>
