<svg width="54" height="55" viewBox="0 0 54 55" fill="none" xmlns="http://www.w3.org/2000/svg">
<g clip-path="url(#clip0_355_97)">
<path d="M52.2947 2.15879C52.946 2.63248 53.2124 3.26406 53.094 4.05353L45.5151 49.5272C45.4164 50.0996 45.1006 50.5437 44.5677 50.8595C44.2914 51.0173 43.9855 51.0963 43.6499 51.0963C43.4328 51.0963 43.196 51.047 42.9394 50.9483L27.3374 44.5831L18.5151 54.2641C18.1598 54.6785 17.696 54.8858 17.1236 54.8858C16.8473 54.8858 16.6203 54.8463 16.4427 54.7673C16.0677 54.6292 15.7716 54.3973 15.5545 54.0716C15.3374 53.746 15.2289 53.3858 15.2289 52.991V39.6095L1.25519 33.8956C0.524932 33.6193 0.130195 33.0766 0.0709842 32.2673C0.0117737 31.4976 0.327563 30.9154 1.01835 30.5206L50.2815 2.09958C50.9723 1.68511 51.6434 1.70485 52.2947 2.15879ZM42.1697 46.5371L48.7124 7.36932L6.25848 31.8529L16.2059 35.9088L41.7552 16.991L27.6039 40.5864L42.1697 46.5371Z" fill="#EBEDF0"/>
</g>
<defs>
<clipPath id="clip0_355_97">
<rect width="53.0526" height="54" fill="white" transform="translate(0.0709839 0.885742)"/>
</clipPath>
</defs>
</svg>
