<svg width="55" height="55" viewBox="0 0 55 55" fill="none" xmlns="http://www.w3.org/2000/svg">
<path d="M8.03991 35.6601C7.98434 35.2562 7.78442 34.8861 7.47711 34.6182C7.16979 34.3503 6.77587 34.2027 6.36816 34.2027C5.96046 34.2027 5.56654 34.3503 5.25922 34.6182C4.95191 34.8861 4.75199 35.2562 4.69641 35.6601L4.68066 35.8896V43.7691L4.69191 44.1629C4.78787 45.6681 5.43031 47.0864 6.49846 48.1513C7.56661 49.2161 8.98692 49.8541 10.4924 49.9454L10.8682 49.9566H18.7432L18.9727 49.9431C19.3783 49.8894 19.7505 49.6901 20.0202 49.3824C20.2898 49.0746 20.4385 48.6794 20.4385 48.2703C20.4385 47.8611 20.2898 47.4659 20.0202 47.1582C19.7505 46.8504 19.3783 46.6511 18.9727 46.5974L18.7432 46.5816H10.8682L10.5802 46.5681C9.93711 46.5017 9.33657 46.2157 8.87964 45.7584C8.42272 45.3011 8.13729 44.7003 8.07141 44.0571L8.05566 43.7691V35.8896L8.03991 35.6601ZM49.6649 35.6601C49.6066 35.2366 49.3898 34.8509 49.0581 34.5811C48.7264 34.3113 48.3047 34.1774 47.8782 34.2066C47.4516 34.2357 47.052 34.4257 46.7601 34.7381C46.4682 35.0505 46.3058 35.4621 46.3057 35.8896V43.7691L46.2922 44.0571C46.2209 44.7498 45.8952 45.3913 45.3781 45.8577C44.8611 46.324 44.1894 46.582 43.4932 46.5816H35.6182L35.3887 46.5974C34.9651 46.6557 34.5795 46.8726 34.3096 47.2042C34.0398 47.5359 33.906 47.9576 33.9351 48.3842C33.9643 48.8107 34.1542 49.2103 34.4666 49.5022C34.7791 49.7941 35.1906 49.9565 35.6182 49.9566H43.4932L43.8712 49.9454C45.4439 49.8491 46.9206 49.1565 48.0002 48.0088C49.0797 46.8611 49.6807 45.3448 49.6807 43.7691V35.8896L49.6649 35.6601ZM20.4307 6.63965C20.4307 6.1921 20.2529 5.76287 19.9364 5.44641C19.6199 5.12994 19.1907 4.95215 18.7432 4.95215H10.8682L10.4924 4.9634C8.91931 5.05911 7.44202 5.75148 6.36199 6.89925C5.28197 8.04701 4.68062 9.56364 4.68066 11.1396V19.0191L4.69641 19.2486C4.75469 19.6722 4.97158 20.0579 5.30324 20.3277C5.63491 20.5975 6.05663 20.7313 6.48318 20.7022C6.90974 20.6731 7.30934 20.4831 7.60123 20.1707C7.89311 19.8583 8.05553 19.4467 8.05566 19.0191V11.1396L8.07141 10.8516C8.14267 10.1594 8.46804 9.51818 8.98461 9.05189C9.50118 8.58561 10.1723 8.32739 10.8682 8.32715H18.7432L18.9727 8.3114C19.3767 8.25594 19.7469 8.05607 20.0149 7.74874C20.283 7.44142 20.4306 7.04743 20.4307 6.63965ZM43.8712 4.9634L43.4932 4.95215H35.6182L35.3887 4.9679C34.9848 5.02347 34.6146 5.22339 34.3467 5.53071C34.0788 5.83802 33.9312 6.23194 33.9312 6.63965C33.9312 7.04736 34.0788 7.44128 34.3467 7.74859C34.6146 8.0559 34.9848 8.25583 35.3887 8.3114L35.6182 8.32715H43.4932L43.7812 8.34065C44.4246 8.40662 45.0257 8.69236 45.4831 9.14975C45.9405 9.60713 46.2262 10.2082 46.2922 10.8516L46.3057 11.1396V19.0191L46.3214 19.2486C46.377 19.6525 46.5769 20.0227 46.8842 20.2906C47.1915 20.5585 47.5855 20.7061 47.9932 20.7061C48.4009 20.7061 48.7948 20.5585 49.1021 20.2906C49.4094 20.0227 49.6093 19.6525 49.6649 19.2486L49.6807 19.0191V11.1396L49.6694 10.7481C49.574 9.24291 48.9322 7.82434 47.8644 6.75909C46.7967 5.69384 45.3766 5.05526 43.8712 4.9634Z" fill="#C7B349"/>
<g clip-path="url(#clip0_32_365)">
<path d="M40.5243 26.77C37.9823 21.8101 32.9498 18.4543 27.1875 18.4543C21.4251 18.4543 16.3912 21.8125 13.8506 26.7704C13.7434 26.9826 13.6875 27.2169 13.6875 27.4546C13.6875 27.6923 13.7434 27.9266 13.8506 28.1387C16.3926 33.0986 21.4251 36.4543 27.1875 36.4543C32.9498 36.4543 37.9837 33.0962 40.5243 28.1383C40.6316 27.9261 40.6874 27.6918 40.6874 27.4541C40.6874 27.2164 40.6316 26.9821 40.5243 26.77ZM27.1875 34.2043C25.8525 34.2043 24.5474 33.8085 23.4374 33.0668C22.3273 32.3251 21.4622 31.2709 20.9513 30.0375C20.4404 28.8041 20.3067 27.4469 20.5672 26.1375C20.8276 24.8281 21.4705 23.6254 22.4145 22.6814C23.3585 21.7374 24.5612 21.0945 25.8706 20.834C27.18 20.5736 28.5372 20.7073 29.7706 21.2182C31.004 21.7291 32.0582 22.5942 32.7999 23.7042C33.5416 24.8143 33.9375 26.1193 33.9375 27.4543C33.9379 28.3409 33.7636 29.2188 33.4245 30.038C33.0855 30.8571 32.5883 31.6014 31.9614 32.2283C31.3345 32.8552 30.5902 33.3523 29.7711 33.6914C28.952 34.0305 28.074 34.2048 27.1875 34.2043ZM27.1875 22.9543C26.7858 22.96 26.3868 23.0197 26.0011 23.132C26.319 23.564 26.4715 24.0957 26.4311 24.6306C26.3906 25.1654 26.1598 25.6681 25.7805 26.0474C25.4012 26.4267 24.8986 26.6575 24.3637 26.698C23.8288 26.7384 23.2972 26.5859 22.8651 26.2679C22.6191 27.1743 22.6635 28.135 22.9921 29.0148C23.3207 29.8946 23.9169 30.6492 24.6968 31.1725C25.4767 31.6957 26.4011 31.9611 27.3398 31.9315C28.2785 31.9018 29.1843 31.5785 29.9296 31.0071C30.6749 30.4358 31.2223 29.645 31.4947 28.7462C31.7671 27.8474 31.7508 26.8858 31.4481 25.9968C31.1454 25.1078 30.5714 24.3361 29.8071 23.7903C29.0428 23.2445 28.1266 22.9521 27.1875 22.9543Z" fill="#C7B349"/>
</g>
<defs>
<clipPath id="clip0_32_365">
<rect width="27" height="24" fill="white" transform="translate(13.6875 15.4543)"/>
</clipPath>
</defs>
</svg>
