<svg width="55" height="55" viewBox="0 0 55 55" fill="none" xmlns="http://www.w3.org/2000/svg">
<path d="M8.78143 35.2994C8.72586 34.8955 8.52593 34.5254 8.21862 34.2575C7.91131 33.9896 7.51739 33.8419 7.10968 33.8419C6.70197 33.8419 6.30805 33.9896 6.00074 34.2575C5.69343 34.5254 5.4935 34.8955 5.43793 35.2994L5.42218 35.5289V43.4084L5.43343 43.8022C5.52939 45.3074 6.17182 46.7257 7.23998 47.7905C8.30813 48.8554 9.72844 49.4934 11.2339 49.5847L11.6097 49.5959H19.4847L19.7142 49.5824C20.1198 49.5287 20.4921 49.3294 20.7617 49.0217C21.0313 48.7139 21.18 48.3187 21.18 47.9096C21.18 47.5004 21.0313 47.1052 20.7617 46.7974C20.4921 46.4897 20.1198 46.2904 19.7142 46.2367L19.4847 46.2209H11.6097L11.3217 46.2074C10.6786 46.141 10.0781 45.855 9.62116 45.3977C9.16423 44.9403 8.87881 44.3396 8.81293 43.6964L8.79718 43.4084V35.5289L8.78143 35.2994ZM50.4064 35.2994C50.3482 34.8759 50.1313 34.4902 49.7996 34.2204C49.4679 33.9506 49.0462 33.8167 48.6197 33.8459C48.1931 33.875 47.7935 34.065 47.5016 34.3774C47.2097 34.6898 47.0473 35.1014 47.0472 35.5289V43.4084L47.0337 43.6964C46.9624 44.389 46.6367 45.0306 46.1197 45.4969C45.6026 45.9633 44.931 46.2212 44.2347 46.2209H36.3597L36.1302 46.2367C35.7066 46.295 35.321 46.5118 35.0512 46.8435C34.7813 47.1752 34.6475 47.5969 34.6766 48.0234C34.7058 48.45 34.8957 48.8496 35.2082 49.1415C35.5206 49.4334 35.9321 49.5958 36.3597 49.5959H44.2347L44.6127 49.5847C46.1854 49.4884 47.6621 48.7958 48.7417 47.6481C49.8212 46.5004 50.4223 44.9841 50.4222 43.4084V35.5289L50.4064 35.2994ZM21.1722 6.27893C21.1722 5.83138 20.9944 5.40216 20.6779 5.08569C20.3615 4.76922 19.9322 4.59143 19.4847 4.59143H11.6097L11.2339 4.60268C9.66083 4.69839 8.18353 5.39077 7.10351 6.53853C6.02348 7.68629 5.42214 9.20292 5.42218 10.7789V18.6584L5.43793 18.8879C5.49621 19.3115 5.71309 19.6971 6.04476 19.967C6.37642 20.2368 6.79814 20.3706 7.2247 20.3415C7.65126 20.3123 8.05085 20.1224 8.34274 19.81C8.63463 19.4975 8.79705 19.086 8.79718 18.6584V10.7789L8.81293 10.4909C8.88419 9.7987 9.20955 9.15746 9.72612 8.69117C10.2427 8.22489 10.9138 7.96667 11.6097 7.96643H19.4847L19.7142 7.95068C20.1182 7.89522 20.4884 7.69535 20.7565 7.38802C21.0245 7.0807 21.1722 6.68672 21.1722 6.27893ZM44.6127 4.60268L44.2347 4.59143H36.3597L36.1302 4.60718C35.7263 4.66275 35.3562 4.86268 35.0882 5.16999C34.8203 5.4773 34.6727 5.87122 34.6727 6.27893C34.6727 6.68664 34.8203 7.08056 35.0882 7.38787C35.3562 7.69518 35.7263 7.89511 36.1302 7.95068L36.3597 7.96643H44.2347L44.5227 7.97993C45.1661 8.0459 45.7672 8.33165 46.2246 8.78903C46.682 9.24641 46.9677 9.84747 47.0337 10.4909L47.0472 10.7789V18.6584L47.0629 18.8879C47.1185 19.2918 47.3184 19.662 47.6257 19.9299C47.9331 20.1978 48.327 20.3454 48.7347 20.3454C49.1424 20.3454 49.5363 20.1978 49.8436 19.9299C50.1509 19.662 50.3509 19.2918 50.4064 18.8879L50.4222 18.6584V10.7789L50.4109 10.3874C50.3156 8.8822 49.6737 7.46363 48.6059 6.39837C47.5382 5.33312 46.1181 4.69455 44.6127 4.60268Z" fill="#AC8B2E"/>
<g clip-path="url(#clip0_127_79)">
<path d="M41.2658 26.4093C38.7238 21.4494 33.6913 18.0936 27.9289 18.0936C22.1666 18.0936 17.1327 21.4518 14.5921 26.4097C14.4848 26.6218 14.429 26.8562 14.429 27.0939C14.429 27.3315 14.4848 27.5659 14.5921 27.778C17.1341 32.7378 22.1666 36.0936 27.9289 36.0936C33.6913 36.0936 38.7252 32.7355 41.2658 27.7775C41.373 27.5654 41.4289 27.3311 41.4289 27.0934C41.4289 26.8557 41.373 26.6214 41.2658 26.4093ZM27.9289 33.8436C26.5939 33.8436 25.2889 33.4477 24.1788 32.706C23.0688 31.9643 22.2036 30.9101 21.6927 29.6767C21.1819 28.4433 21.0482 27.0861 21.3086 25.7768C21.5691 24.4674 22.212 23.2647 23.156 22.3207C24.1 21.3767 25.3027 20.7338 26.6121 20.4733C27.9214 20.2129 29.2786 20.3465 30.512 20.8574C31.7454 21.3683 32.7997 22.2335 33.5413 23.3435C34.283 24.4536 34.6789 25.7586 34.6789 27.0936C34.6794 27.9802 34.5051 28.8581 34.166 29.6773C33.8269 30.4964 33.3297 31.2407 32.7029 31.8676C32.076 32.4944 31.3317 32.9916 30.5126 33.3307C29.6934 33.6698 28.8155 33.8441 27.9289 33.8436ZM27.9289 22.5936C27.5273 22.5992 27.1282 22.659 26.7425 22.7713C27.0604 23.2033 27.213 23.735 27.1725 24.2699C27.1321 24.8047 26.9013 25.3074 26.522 25.6867C26.1427 26.066 25.64 26.2968 25.1052 26.3372C24.5703 26.3777 24.0386 26.2251 23.6066 25.9072C23.3606 26.8136 23.405 27.7743 23.7336 28.6541C24.0621 29.5339 24.6584 30.2885 25.4383 30.8117C26.2182 31.3349 27.1426 31.6004 28.0813 31.5708C29.02 31.5411 29.9257 31.2178 30.6711 30.6464C31.4164 30.075 31.9638 29.2843 32.2362 28.3855C32.5086 27.4867 32.4923 26.5251 32.1895 25.6361C31.8868 24.7471 31.3129 23.9753 30.5486 23.4296C29.7843 22.8838 28.8681 22.5914 27.9289 22.5936Z" fill="#AC8B2E"/>
</g>
<defs>
<clipPath id="clip0_127_79">
<rect width="27" height="24" fill="white" transform="translate(14.429 15.0936)"/>
</clipPath>
</defs>
</svg>
