<svg width="55" height="55" viewBox="0 0 55 55" fill="none" xmlns="http://www.w3.org/2000/svg">
<path d="M7.92346 36.0937C7.86789 35.6898 7.66796 35.3197 7.36065 35.0518C7.05334 34.7839 6.65942 34.6363 6.25171 34.6363C5.844 34.6363 5.45008 34.7839 5.14277 35.0518C4.83546 35.3197 4.63553 35.6898 4.57996 36.0937L4.56421 36.3232V44.2027L4.57546 44.5965C4.67142 46.1017 5.31385 47.52 6.382 48.5849C7.45016 49.6497 8.87047 50.2877 10.376 50.379L10.7517 50.3902H18.6267L18.8562 50.3767C19.2618 50.323 19.6341 50.1237 19.9037 49.816C20.1734 49.5082 20.322 49.113 20.322 48.7039C20.322 48.2947 20.1734 47.8995 19.9037 47.5918C19.6341 47.284 19.2618 47.0847 18.8562 47.031L18.6267 47.0152H10.7517L10.4637 47.0017C9.82065 46.9353 9.22012 46.6493 8.76319 46.192C8.30626 45.7346 8.02084 45.1339 7.95496 44.4907L7.93921 44.2027V36.3232L7.92346 36.0937ZM49.5485 36.0937C49.4902 35.6702 49.2733 35.2845 48.9416 35.0147C48.61 34.7449 48.1883 34.611 47.7617 34.6402C47.3351 34.6693 46.9355 34.8593 46.6437 35.1717C46.3518 35.4841 46.1893 35.8957 46.1892 36.3232V44.2027L46.1757 44.4907C46.1044 45.1834 45.7787 45.8249 45.2617 46.2913C44.7446 46.7576 44.073 47.0156 43.3767 47.0152H35.5017L35.2722 47.031C34.8486 47.0893 34.463 47.3062 34.1932 47.6378C33.9234 47.9695 33.7895 48.3912 33.8187 48.8178C33.8478 49.2443 34.0378 49.6439 34.3502 49.9358C34.6626 50.2277 35.0742 50.3901 35.5017 50.3902H43.3767L43.7547 50.379C45.3274 50.2827 46.8042 49.5901 47.8837 48.4424C48.9633 47.2947 49.5643 45.7784 49.5642 44.2027V36.3232L49.5485 36.0937ZM20.3142 7.07324C20.3142 6.62569 20.1364 6.19647 19.82 5.88C19.5035 5.56353 19.0743 5.38574 18.6267 5.38574H10.7517L10.376 5.39699C8.80286 5.4927 7.32556 6.18508 6.24554 7.33284C5.16551 8.4806 4.56417 9.99723 4.56421 11.5732V19.4527L4.57996 19.6822C4.63824 20.1058 4.85512 20.4915 5.18679 20.7613C5.51845 21.0311 5.94017 21.1649 6.36673 21.1358C6.79329 21.1067 7.19288 20.9167 7.48477 20.6043C7.77666 20.2919 7.93908 19.8803 7.93921 19.4527V11.5732L7.95496 11.2852C8.02622 10.593 8.35158 9.95177 8.86815 9.48549C9.38472 9.0192 10.0558 8.76098 10.7517 8.76074H18.6267L18.8562 8.74499C19.2602 8.68953 19.6305 8.48966 19.8985 8.18234C20.1665 7.87501 20.3142 7.48103 20.3142 7.07324ZM43.7547 5.39699L43.3767 5.38574H35.5017L35.2722 5.40149C34.8683 5.45707 34.4982 5.65699 34.2303 5.9643C33.9623 6.27161 33.8147 6.66554 33.8147 7.07324C33.8147 7.48095 33.9623 7.87487 34.2303 8.18218C34.4982 8.4895 34.8683 8.68942 35.2722 8.74499L35.5017 8.76074H43.3767L43.6647 8.77424C44.3082 8.84021 44.9092 9.12596 45.3666 9.58334C45.824 10.0407 46.1097 10.6418 46.1757 11.2852L46.1892 11.5732V19.4527L46.205 19.6822C46.2605 20.0861 46.4605 20.4563 46.7678 20.7242C47.0751 20.9921 47.469 21.1397 47.8767 21.1397C48.2844 21.1397 48.6783 20.9921 48.9857 20.7242C49.293 20.4563 49.4929 20.0861 49.5485 19.6822L49.5642 19.4527V11.5732L49.553 11.1817C49.4576 9.67651 48.8157 8.25794 47.748 7.19268C46.6802 6.12743 45.2602 5.48886 43.7547 5.39699Z" fill="#EBEDF0"/>
<g clip-path="url(#clip0_355_117)">
<path d="M40.4078 27.2036C37.8658 22.2437 32.8333 18.8879 27.071 18.8879C21.3086 18.8879 16.2747 22.2461 13.7341 27.204C13.6269 27.4161 13.571 27.6505 13.571 27.8882C13.571 28.1259 13.6269 28.3602 13.7341 28.5723C16.2761 33.5322 21.3086 36.8879 27.071 36.8879C32.8333 36.8879 37.8672 33.5298 40.4078 28.5718C40.5151 28.3597 40.5709 28.1254 40.5709 27.8877C40.5709 27.65 40.5151 27.4157 40.4078 27.2036ZM27.071 34.6379C25.7359 34.6379 24.4309 34.2421 23.3209 33.5004C22.2108 32.7587 21.3457 31.7045 20.8348 30.4711C20.3239 29.2377 20.1902 27.8805 20.4507 26.5711C20.7111 25.2617 21.354 24.059 22.298 23.115C23.242 22.171 24.4447 21.5281 25.7541 21.2676C27.0635 21.0072 28.4207 21.1409 29.6541 21.6518C30.8875 22.1626 31.9417 23.0278 32.6834 24.1378C33.4251 25.2479 33.821 26.5529 33.821 27.8879C33.8214 28.7745 33.6471 29.6524 33.308 30.4716C32.969 31.2907 32.4718 32.035 31.8449 32.6619C31.218 33.2888 30.4737 33.7859 29.6546 34.125C28.8354 34.4641 27.9575 34.6384 27.071 34.6379ZM27.071 23.3879C26.6693 23.3935 26.2702 23.4533 25.8846 23.5656C26.2025 23.9976 26.355 24.5293 26.3146 25.0642C26.2741 25.599 26.0433 26.1017 25.664 26.481C25.2847 26.8603 24.7821 27.0911 24.2472 27.1315C23.7123 27.172 23.1806 27.0194 22.7486 26.7015C22.5026 27.6079 22.547 28.5686 22.8756 29.4484C23.2042 30.3282 23.8004 31.0828 24.5803 31.606C25.3602 32.1293 26.2846 32.3947 27.2233 32.3651C28.162 32.3354 29.0677 32.0121 29.8131 31.4407C30.5584 30.8693 31.1058 30.0786 31.3782 29.1798C31.6506 28.281 31.6343 27.3194 31.3316 26.4304C31.0288 25.5414 30.4549 24.7696 29.6906 24.2239C28.9263 23.6781 28.0101 23.3857 27.071 23.3879Z" fill="#EBEDF0"/>
</g>
<defs>
<clipPath id="clip0_355_117">
<rect width="27" height="24" fill="white" transform="translate(13.571 15.8879)"/>
</clipPath>
</defs>
</svg>
