<svg width="24" height="25" viewBox="0 0 24 25" fill="none" xmlns="http://www.w3.org/2000/svg">
<path d="M19.7052 8.58451C18.9917 11.367 17.5437 13.9066 15.5125 15.9378C13.4813 17.969 10.9417 19.417 8.15922 20.1305C6.01822 20.6755 4.19922 18.8345 4.19922 16.6245V15.6245C4.19922 15.0725 4.64822 14.6295 5.19822 14.5745C6.10861 14.484 7.00228 14.269 7.85422 13.9355L9.37322 15.4555C11.8481 14.2691 13.8438 12.2734 15.0302 9.79851L13.5102 8.27851C13.8441 7.42663 14.0594 6.53295 14.1502 5.62251C14.2042 5.07251 14.6472 4.62451 15.1992 4.62451H16.1992C18.4072 4.62451 20.2492 6.44351 19.7042 8.58451" stroke="white" stroke-width="2" stroke-linecap="round" stroke-linejoin="round"/>
</svg>
