<svg width="33" height="33" viewBox="0 0 33 33" fill="none" xmlns="http://www.w3.org/2000/svg">
<path d="M11.5196 11.7925L14.9836 4.81649C15.0845 4.61461 15.2395 4.4448 15.4315 4.32612C15.6234 4.20744 15.8446 4.14457 16.0703 4.14457C16.296 4.14457 16.5172 4.20744 16.7091 4.32612C16.901 4.4448 17.0561 4.61461 17.1569 4.81649L20.621 11.7925L28.365 12.9178C28.5883 12.9488 28.7985 13.0419 28.9714 13.1866C29.1444 13.3313 29.2732 13.5217 29.3431 13.7361C29.4131 13.9505 29.4213 14.1802 29.3669 14.3991C29.3126 14.6179 29.1978 14.8171 29.0356 14.9738L23.4329 20.4005L24.7556 28.0672C24.9249 29.0512 23.885 29.8005 22.9956 29.3365L16.0703 25.7152L9.14362 29.3365C8.25562 29.8018 7.21562 29.0512 7.38495 28.0658L8.70762 20.3992L3.10495 14.9725C2.9436 14.8157 2.82948 14.6167 2.77557 14.3982C2.72166 14.1798 2.73011 13.9506 2.79998 13.7367C2.86984 13.5228 2.99831 13.3328 3.17078 13.1883C3.34324 13.0438 3.5528 12.9505 3.77562 12.9192L11.5196 11.7925Z" stroke="white" stroke-width="2" stroke-linecap="round" stroke-linejoin="round"/>
</svg>
