<svg width="40" height="41" viewBox="0 0 40 41" fill="none" xmlns="http://www.w3.org/2000/svg">
<path d="M35 35.1947L27.7616 27.9563M27.7616 27.9563C28.9998 26.7182 29.9819 25.2483 30.652 23.6306C31.3221 22.0129 31.667 20.279 31.667 18.528C31.667 16.777 31.3221 15.0432 30.652 13.4254C29.9819 11.8077 28.9998 10.3378 27.7616 9.09968C26.5235 7.86153 25.0536 6.87938 23.4359 6.2093C21.8182 5.53922 20.0843 5.19434 18.3333 5.19434C16.5823 5.19434 14.8484 5.53922 13.2307 6.2093C11.613 6.87938 10.1431 7.86153 8.90498 9.09968C6.40443 11.6002 4.99963 14.9917 4.99963 18.528C4.99963 22.0643 6.40443 25.4558 8.90498 27.9563C11.4055 30.4569 14.797 31.8617 18.3333 31.8617C21.8696 31.8617 25.2611 30.4569 27.7616 27.9563Z" stroke="white" stroke-width="1.5" stroke-linecap="round" stroke-linejoin="round"/>
</svg>
