<svg width="23" height="23" viewBox="0 0 23 23" fill="none" xmlns="http://www.w3.org/2000/svg">
<path d="M16.4729 1.73169H6.4729C3.71148 1.73169 1.4729 3.97027 1.4729 6.73169V16.7317C1.4729 19.4931 3.71148 21.7317 6.4729 21.7317H16.4729C19.2343 21.7317 21.4729 19.4931 21.4729 16.7317V6.73169C21.4729 3.97027 19.2343 1.73169 16.4729 1.73169Z" stroke="white" stroke-width="2" stroke-linecap="round" stroke-linejoin="round"/>
<path d="M16.9729 6.23169H16.9829M15.4729 11.1017C15.5963 11.9339 15.4541 12.7839 15.0666 13.5307C14.6791 14.2775 14.066 14.8831 13.3145 15.2614C12.563 15.6396 11.7113 15.7713 10.8806 15.6376C10.05 15.504 9.28261 15.1118 8.68769 14.5169C8.09277 13.9219 7.70058 13.1546 7.56692 12.3239C7.43325 11.4932 7.56492 10.6416 7.94318 9.89006C8.32144 9.13854 8.92704 8.52543 9.67384 8.13793C10.4206 7.75043 11.2706 7.60828 12.1029 7.73169C12.9518 7.85757 13.7377 8.25315 14.3445 8.86C14.9514 9.46684 15.347 10.2528 15.4729 11.1017Z" stroke="white" stroke-width="2" stroke-linecap="round" stroke-linejoin="round"/>
</svg>
