<svg width="21" height="21" viewBox="0 0 21 21" fill="none" xmlns="http://www.w3.org/2000/svg">
<path d="M0.99478 0.505006C1.10865 0.391668 1.25251 0.313197 1.40945 0.278819C1.5664 0.244442 1.72989 0.255587 1.88072 0.310944L20.4432 7.06094C20.6033 7.12167 20.7411 7.22965 20.8384 7.37056C20.9356 7.51147 20.9877 7.67863 20.9877 7.84985C20.9877 8.02106 20.9356 8.18823 20.8384 8.32914C20.7411 8.47005 20.6033 8.57804 20.4432 8.63876L13.1954 11.5328L7.84603 6.16657L6.65634 7.35626L12.031 12.7309L9.12853 19.9788C9.066 20.1357 8.95778 20.2703 8.81787 20.3651C8.67797 20.4599 8.51283 20.5105 8.34384 20.5103C8.17333 20.5068 8.00788 20.4517 7.86931 20.3523C7.73074 20.2529 7.62554 20.1138 7.56759 19.9534L0.817591 1.39094C0.760105 1.24166 0.746239 1.07912 0.777611 0.922261C0.808983 0.765402 0.884302 0.620693 0.99478 0.505006Z" fill="#3C3C43"/>
</svg>
