<svg width="29" height="22" viewBox="0 0 29 22" fill="none" xmlns="http://www.w3.org/2000/svg">
<path d="M17.2933 10.7981L12.6266 13.4647V8.13141L17.2933 10.7981Z" fill="white" stroke="white" stroke-width="1.5" stroke-linecap="round" stroke-linejoin="round"/>
<path d="M1.29333 11.7421V9.85407C1.29333 5.99407 1.29333 4.06341 2.5 2.82207C3.708 1.57941 5.60934 1.52607 9.41067 1.41807C11.2107 1.36741 13.0507 1.33141 14.6267 1.33141C16.2027 1.33141 18.0413 1.36741 19.8427 1.41807C23.644 1.52607 25.5453 1.57941 26.752 2.82207C27.9587 4.06474 27.96 5.99541 27.96 9.85407V11.7407C27.96 15.6021 27.96 17.5314 26.7533 18.7741C25.5453 20.0154 23.6453 20.0701 19.8427 20.1767C18.0427 20.2287 16.2027 20.2647 14.6267 20.2647C13.0507 20.2647 11.212 20.2287 9.41067 20.1767C5.60934 20.0701 3.708 20.0167 2.5 18.7741C1.292 17.5314 1.29333 15.6007 1.29333 11.7421Z" stroke="white" stroke-width="1.5"/>
</svg>
