<svg width="346" height="289" viewBox="0 0 346 289" fill="none" xmlns="http://www.w3.org/2000/svg">
<g clip-path="url(#clip0_6_137)">
<path d="M146.776 2.37194C148.444 3.24582 149.656 4.86874 149.808 7.86489C151.172 23.7195 149.505 40.1984 149.505 56.053C149.505 76.4019 149.505 96.8756 149.505 117.224C149.505 121.219 151.021 123.466 156.174 123.092C163.754 122.593 171.333 122.468 178.76 122.343C194.676 122.218 210.744 122.593 226.66 123.716C231.814 124.091 236.513 124.59 241.363 125.589C262.13 129.958 277.44 140.32 287.293 156.424C292.75 165.288 295.63 174.401 295.933 184.014C296.236 193.751 292.75 203.114 287.293 211.603C282.442 219.218 277.137 226.459 268.042 231.453C254.248 239.068 239.999 244.561 222.87 244.436C186.946 244.062 150.869 244.311 114.944 244.311C110.094 244.311 105.091 244.311 99.6345 244.311C99.6345 231.453 99.4829 218.844 99.786 206.235C99.786 205.236 101.605 203.738 103.121 203.239C104.485 202.74 106.456 203.114 108.123 203.114C146.17 203.114 184.217 202.864 222.416 203.239C230.904 203.364 243.031 195.499 244.243 187.634C245.759 176.773 242.424 170.781 230.298 165.662C228.782 165.038 226.66 164.788 224.993 164.788C187.097 164.788 149.202 164.664 111.306 164.788C101.605 164.788 98.725 166.786 98.725 154.302C98.5734 107.487 98.725 60.5472 98.725 13.7324C98.725 11.1107 98.4218 7.86489 99.4829 5.36809C101.15 1.49806 100.999 1.99742 106.304 1.87258C114.944 1.74774 123.736 1.87258 132.376 1.87258C137.378 1.87258 143.29 0.499346 146.776 2.37194Z" fill="url(#paint0_linear_6_137)"/>
<path d="M345.045 167.535C344.439 169.532 343.833 171.53 342.923 174.651C341.559 170.032 340.346 166.162 339.285 162.292C329.584 124.84 290.021 91.5075 243.182 86.1394C227.873 84.3916 212.411 83.3929 196.04 82.0196C196.04 81.2706 196.04 79.6477 196.04 78.0248C196.04 55.9282 196.04 33.7067 196.04 11.6101C196.04 8.36424 196.798 5.11841 197.101 1.74774C246.366 1.74774 295.63 1.74774 344.894 1.74774C345.045 57.0517 345.045 112.231 345.045 167.535Z" fill="url(#paint1_linear_6_137)"/>
<path d="M250.155 291.126C166.937 291.126 83.8699 291.001 0.651581 291.376C2.31898 264.036 2.47056 236.571 0.803163 209.231C0.651581 207.359 0.651581 205.112 2.47056 203.988C3.8348 203.114 5.65378 202.989 7.32118 202.989C20.5088 202.989 33.848 202.989 47.0356 203.114C48.5514 203.114 50.2188 203.239 51.1283 204.238C51.7346 204.987 51.7346 205.861 51.7346 206.735C51.7346 230.329 51.7346 253.799 51.583 277.394C51.583 279.017 51.7346 280.889 53.2504 282.013C54.4631 282.762 56.1305 282.887 57.6463 282.887C116.157 282.762 174.667 283.012 233.178 282.637C245.153 282.512 256.825 280.015 268.042 275.771C279.107 271.526 289.718 266.907 298.813 260.166C305.786 254.923 312.758 249.43 318.215 243.063C324.43 235.697 329.432 227.708 333.677 219.468C337.315 212.477 338.982 204.737 341.559 197.372C342.165 195.624 343.378 193.876 344.439 192.503C346.106 199.494 344.894 207.608 344.894 214.724C344.894 223.213 344.894 231.702 344.894 240.192C344.894 257.544 344.894 274.897 344.894 292.125" fill="url(#paint2_linear_6_137)"/>
<path d="M49.1577 2.12228C49.9156 2.62163 50.3704 3.12099 50.6735 3.74519C53.8568 14.1069 51.7346 26.5909 51.7346 37.2022C51.7346 49.9359 51.7346 62.5447 51.7346 75.2783C51.7346 100.246 51.7346 125.339 51.7346 150.307C51.7346 153.927 53.0989 157.548 52.6441 161.043C52.4925 162.292 49.4609 164.414 47.7935 164.539C37.9407 164.913 28.0879 164.788 18.2351 164.664C12.3234 164.539 6.41168 164.039 0.49999 163.79C0.49999 162.916 0.49999 161.917 0.49999 161.043C0.803153 159.67 1.56106 158.172 1.56106 156.799C1.56106 130.707 1.56106 104.616 1.56106 78.5242C1.56106 65.1663 1.56106 51.6836 1.56106 38.3258C1.56106 31.5844 1.56106 24.9679 1.56106 18.2266C1.56106 13.1082 -0.4095 6.74134 0.651572 1.8726C8.07908 1.8726 41.5786 -2.49679 49.1577 2.12228Z" fill="url(#paint3_linear_6_137)"/>
</g>
<defs>
<linearGradient id="paint0_linear_6_137" x1="98.3792" y1="122.871" x2="295.997" y2="122.871" gradientUnits="userSpaceOnUse">
<stop stop-color="#EDDB79"/>
<stop offset="1" stop-color="#AC8B2E"/>
</linearGradient>
<linearGradient id="paint1_linear_6_137" x1="196.153" y1="88.2082" x2="345.075" y2="88.2082" gradientUnits="userSpaceOnUse">
<stop stop-color="#EDDB79"/>
<stop offset="1" stop-color="#AC8B2E"/>
</linearGradient>
<linearGradient id="paint2_linear_6_137" x1="0.609787" y1="242.208" x2="345.505" y2="242.208" gradientUnits="userSpaceOnUse">
<stop stop-color="#EDDB79"/>
<stop offset="1" stop-color="#AC8B2E"/>
</linearGradient>
<linearGradient id="paint3_linear_6_137" x1="0.49999" y1="82.3949" x2="52.8738" y2="82.3949" gradientUnits="userSpaceOnUse">
<stop stop-color="#EDDB79"/>
<stop offset="1" stop-color="#AC8B2E"/>
</linearGradient>
<clipPath id="clip0_6_137">
<rect width="345" height="292" fill="white" transform="translate(0.5)"/>
</clipPath>
</defs>
</svg>
