<svg width="54" height="55" viewBox="0 0 54 55" fill="none" xmlns="http://www.w3.org/2000/svg">
<g clip-path="url(#clip0_127_127)">
<path d="M52.7237 1.36448C53.375 1.83817 53.6414 2.46974 53.523 3.25922L45.9441 48.7329C45.8454 49.3053 45.5296 49.7494 44.9967 50.0651C44.7204 50.223 44.4145 50.302 44.0789 50.302C43.8618 50.302 43.625 50.2526 43.3684 50.154L27.7664 43.7888L18.9441 53.4697C18.5888 53.8842 18.125 54.0915 17.5526 54.0915C17.2763 54.0915 17.0493 54.052 16.8717 53.973C16.4967 53.8349 16.2007 53.603 15.9836 53.2773C15.7664 52.9517 15.6579 52.5915 15.6579 52.1967V38.8151L1.68421 33.1013C0.953948 32.825 0.559211 32.2822 0.5 31.473C0.44079 30.7033 0.756579 30.1211 1.44737 29.7263L50.7105 1.30527C51.4013 0.890797 52.0724 0.910534 52.7237 1.36448ZM42.5987 45.7428L49.1414 6.57501L6.6875 31.0586L16.6349 35.1145L42.1842 16.1967L28.0329 39.7921L42.5987 45.7428Z" fill="#AC8B2E"/>
</g>
<defs>
<clipPath id="clip0_127_127">
<rect width="53.0526" height="54" fill="white" transform="translate(0.5 0.0914307)"/>
</clipPath>
</defs>
</svg>
