<svg width="15" height="25" viewBox="0 0 15 25" fill="none" xmlns="http://www.w3.org/2000/svg">
<path d="M10.6267 -0.00326538C8.99115 -0.00326538 7.42264 0.646435 6.26616 1.80291C5.10969 2.95938 4.45999 4.5279 4.45999 6.1634V9.59674H1.15999C0.994652 9.59674 0.859985 9.73007 0.859985 9.89674V14.4301C0.859985 14.5954 0.993319 14.7301 1.15999 14.7301H4.45999V24.0301C4.45999 24.1954 4.59332 24.3301 4.75999 24.3301H9.29332C9.45865 24.3301 9.59332 24.1967 9.59332 24.0301V14.7301H12.9227C13.06 14.7301 13.18 14.6367 13.2133 14.5034L14.3467 9.97007C14.3578 9.92583 14.3587 9.87963 14.3493 9.83499C14.3399 9.79035 14.3205 9.74843 14.2925 9.71244C14.2644 9.67644 14.2286 9.64731 14.1876 9.62726C14.1466 9.60721 14.1016 9.59677 14.056 9.59674H9.59332V6.1634C9.59332 6.0277 9.62005 5.89333 9.67198 5.76796C9.72391 5.64259 9.80002 5.52868 9.89598 5.43272C9.99193 5.33677 10.1058 5.26066 10.2312 5.20873C10.3566 5.1568 10.491 5.13007 10.6267 5.13007H14.0933C14.2587 5.13007 14.3933 4.99673 14.3933 4.83007V0.296735C14.3933 0.131401 14.26 -0.00326538 14.0933 -0.00326538H10.6267Z" fill="white"/>
</svg>
