<svg width="24" height="25" viewBox="0 0 24 25" fill="none" xmlns="http://www.w3.org/2000/svg">
<path d="M7 9.42578L12 12.9258L17 9.42578" stroke="white" stroke-width="1.5" stroke-linecap="round" stroke-linejoin="round"/>
<path d="M2 17.4258V7.42578C2 6.89535 2.21071 6.38664 2.58579 6.01157C2.96086 5.63649 3.46957 5.42578 4 5.42578H20C20.5304 5.42578 21.0391 5.63649 21.4142 6.01157C21.7893 6.38664 22 6.89535 22 7.42578V17.4258C22 17.9562 21.7893 18.4649 21.4142 18.84C21.0391 19.2151 20.5304 19.4258 20 19.4258H4C3.46957 19.4258 2.96086 19.2151 2.58579 18.84C2.21071 18.4649 2 17.9562 2 17.4258Z" stroke="white" stroke-width="1.5"/>
</svg>
