<svg width="27" height="25" viewBox="0 0 27 25" fill="none" xmlns="http://www.w3.org/2000/svg">
<path d="M6.25332 2.99808C6.25296 3.70532 5.97167 4.38346 5.47132 4.88331C4.97098 5.38315 4.29256 5.66377 3.58532 5.66341C2.87807 5.66306 2.19994 5.38177 1.70009 4.88142C1.20024 4.38107 0.91963 3.70266 0.919983 2.99541C0.920337 2.28817 1.20163 1.61003 1.70197 1.11018C2.20232 0.610337 2.88074 0.329725 3.58798 0.330078C4.29523 0.330432 4.97336 0.611723 5.47321 1.11207C5.97306 1.61242 6.25367 2.29083 6.25332 2.99808ZM6.33332 7.63808H0.999983V24.3314H6.33332V7.63808ZM14.76 7.63808H9.45332V24.3314H14.7066V15.5714C14.7066 10.6914 21.0666 10.2381 21.0666 15.5714V24.3314H26.3333V13.7581C26.3333 5.53141 16.92 5.83808 14.7066 9.87808L14.76 7.63808Z" fill="white"/>
</svg>
