<svg width="157" height="133" viewBox="0 0 157 133" fill="none" xmlns="http://www.w3.org/2000/svg">
<path d="M66.9637 1.9579C67.7177 2.35294 68.266 3.08659 68.3345 4.44102C68.9514 11.6082 68.1975 19.0575 68.1975 26.2247C68.1975 35.4235 68.1975 44.6787 68.1975 53.8775C68.1975 55.6834 68.8829 56.6992 71.2133 56.5299C74.6403 56.3042 78.0674 56.2478 81.4259 56.1913C88.6228 56.1349 95.8881 56.3042 103.085 56.8121C105.415 56.9814 107.54 57.2072 109.733 57.6586C119.124 59.6338 126.046 64.3179 130.502 71.5979C132.969 75.6048 134.271 79.7245 134.408 84.0699C134.545 88.4718 132.969 92.7044 130.502 96.5419C128.308 99.9844 125.909 103.258 121.797 105.515C115.559 108.957 109.117 111.441 101.371 111.384C85.1272 111.215 68.8143 111.328 52.57 111.328C50.3767 111.328 48.1149 111.328 45.6474 111.328C45.6474 105.515 45.5788 99.8151 45.7159 94.1152C45.7159 93.6638 46.5384 92.9865 47.2238 92.7608C47.8407 92.5351 48.7317 92.7044 49.4857 92.7044C66.6895 92.7044 83.8934 92.5915 101.166 92.7608C105.004 92.8172 110.487 89.2619 111.036 85.7065C111.721 80.7967 110.213 78.0879 104.73 75.7741C104.045 75.4919 103.085 75.379 102.331 75.379C85.1957 75.379 68.0604 75.3226 50.925 75.379C46.5384 75.379 45.2361 76.282 45.2361 70.6385C45.1676 49.4756 45.2361 28.2563 45.2361 7.09343C45.2361 5.90831 45.099 4.44102 45.5788 3.31233C46.3328 1.56286 46.2642 1.7886 48.6632 1.73217C52.57 1.67573 56.5454 1.73217 60.4523 1.73217C62.7142 1.73217 65.3873 1.11139 66.9637 1.9579Z" fill="#EBEDF0"/>
<path d="M156.616 76.6206C156.342 77.5236 156.067 78.4265 155.656 79.8374C155.039 77.7493 154.491 75.9999 154.011 74.2504C149.625 57.3201 131.735 42.2521 110.556 39.8254C103.633 39.0353 96.6421 38.5839 89.2396 37.9631C89.2396 37.6245 89.2396 36.8908 89.2396 36.1572C89.2396 26.1683 89.2396 16.123 89.2396 6.1341C89.2396 4.6668 89.5823 3.19951 89.7194 1.67578C111.995 1.67578 134.271 1.67578 156.547 1.67578C156.616 26.6762 156.616 51.6202 156.616 76.6206Z" fill="#EBEDF0"/>
<path d="M113.709 132.491C76.0797 132.491 38.5191 132.434 0.889893 132.603C1.64385 120.244 1.71239 107.829 0.958434 95.4697C0.889893 94.6232 0.889892 93.6073 1.71239 93.0994C2.32926 92.7044 3.15176 92.648 3.90571 92.648C9.8688 92.648 15.9004 92.648 21.8635 92.7044C22.5489 92.7044 23.3029 92.7608 23.7141 93.2123C23.9883 93.5509 23.9883 93.946 23.9883 94.341C23.9883 105.007 23.9883 115.617 23.9198 126.283C23.9198 127.016 23.9883 127.863 24.6737 128.371C25.2221 128.71 25.976 128.766 26.6614 128.766C53.1184 128.71 79.5753 128.822 106.032 128.653C111.447 128.597 116.725 127.468 121.797 125.549C126.8 123.63 131.598 121.542 135.711 118.495C138.864 116.125 142.016 113.642 144.484 110.763C147.294 107.434 149.556 103.822 151.475 100.097C153.12 96.937 153.874 93.438 155.039 90.1084C155.313 89.3183 155.862 88.5282 156.342 87.9075C157.096 91.0678 156.547 94.736 156.547 97.9528C156.547 101.79 156.547 105.628 156.547 109.465C156.547 117.31 156.547 125.154 156.547 132.942" fill="#EBEDF0"/>
<path d="M22.8231 1.84507C23.1658 2.0708 23.3714 2.29654 23.5085 2.57871C24.9479 7.26277 23.9883 12.9062 23.9883 17.7031C23.9883 23.4594 23.9883 29.1593 23.9883 34.9156C23.9883 46.2025 23.9883 57.5458 23.9883 68.8327C23.9883 70.4693 24.6052 72.1059 24.3995 73.686C24.331 74.2504 22.9602 75.2098 22.2062 75.2662C17.751 75.4355 13.2959 75.3791 8.84067 75.3226C6.16756 75.2662 3.49445 75.0405 0.821341 74.9276C0.821341 74.5325 0.821341 74.0811 0.821341 73.686C0.958424 73.0653 1.30113 72.388 1.30113 71.7673C1.30113 59.9725 1.30113 48.1777 1.30113 36.3829C1.30113 30.3444 1.30113 24.2495 1.30113 18.211C1.30113 15.1636 1.30113 12.1726 1.30113 9.1251C1.30113 6.81129 0.410093 3.93314 0.889882 1.7322C4.24841 1.7322 19.396 -0.243005 22.8231 1.84507Z" fill="#EBEDF0"/>
</svg>
