<svg width="32" height="33" viewBox="0 0 32 33" fill="none" xmlns="http://www.w3.org/2000/svg">
<path d="M31.2042 31.7183L23.9659 24.4799M23.9659 24.4799C25.204 23.2418 26.1862 21.7719 26.8562 20.1542C27.5263 18.5365 27.8712 16.8026 27.8712 15.0516C27.8712 13.3006 27.5263 11.5667 26.8562 9.94902C26.1862 8.33131 25.204 6.86142 23.9659 5.62327C22.7277 4.38512 21.2578 3.40297 19.6401 2.73289C18.0224 2.06281 16.2885 1.71793 14.5375 1.71793C12.7865 1.71793 11.0527 2.06281 9.43496 2.73289C7.81724 3.40297 6.34735 4.38512 5.1092 5.62327C2.60865 8.12382 1.20386 11.5153 1.20386 15.0516C1.20386 18.5879 2.60865 21.9794 5.1092 24.4799C7.60975 26.9805 11.0012 28.3853 14.5375 28.3853C18.0738 28.3853 21.4653 26.9805 23.9659 24.4799Z" stroke="black" stroke-width="1.5" stroke-linecap="round" stroke-linejoin="round"/>
</svg>
